<svg width="255" height="179" viewBox="0 0 255 179" fill="none" xmlns="http://www.w3.org/2000/svg">
<rect x="139" y="121.569" width="80" height="80" transform="rotate(-45 139 121.569)" fill="#ECECEC"/>
<rect width="255" height="143" fill="#ECECEC"/>
<path d="M21.5114 75.4545H23.5284L27.5625 82.2443H27.733L31.767 75.4545H33.7841L28.5284 84.0057V90H26.767V84.0057L21.5114 75.4545ZM38.7237 90.2273C37.7389 90.2273 36.8748 89.9929 36.1314 89.5241C35.3928 89.0554 34.8151 88.3996 34.3984 87.5568C33.9865 86.714 33.7805 85.7292 33.7805 84.6023C33.7805 83.4659 33.9865 82.474 34.3984 81.6264C34.8151 80.7789 35.3928 80.1207 36.1314 79.652C36.8748 79.1832 37.7389 78.9489 38.7237 78.9489C39.7086 78.9489 40.5703 79.1832 41.3089 79.652C42.0523 80.1207 42.63 80.7789 43.0419 81.6264C43.4586 82.474 43.6669 83.4659 43.6669 84.6023C43.6669 85.7292 43.4586 86.714 43.0419 87.5568C42.63 88.3996 42.0523 89.0554 41.3089 89.5241C40.5703 89.9929 39.7086 90.2273 38.7237 90.2273ZM38.7237 88.7216C39.4718 88.7216 40.0874 88.5298 40.5703 88.1463C41.0533 87.7628 41.4107 87.2585 41.6428 86.6335C41.8748 86.0085 41.9908 85.3314 41.9908 84.6023C41.9908 83.8731 41.8748 83.1937 41.6428 82.5639C41.4107 81.9342 41.0533 81.4252 40.5703 81.0369C40.0874 80.6487 39.4718 80.4545 38.7237 80.4545C37.9756 80.4545 37.3601 80.6487 36.8771 81.0369C36.3942 81.4252 36.0367 81.9342 35.8047 82.5639C35.5727 83.1937 35.4567 83.8731 35.4567 84.6023C35.4567 85.3314 35.5727 86.0085 35.8047 86.6335C36.0367 87.2585 36.3942 87.7628 36.8771 88.1463C37.3601 88.5298 37.9756 88.7216 38.7237 88.7216ZM53.1005 85.5398V79.0909H54.7766V90H53.1005V88.1534H52.9869C52.7312 88.7074 52.3335 89.1785 51.7937 89.5668C51.2539 89.9503 50.5721 90.142 49.7482 90.142C49.0664 90.142 48.4603 89.9929 47.93 89.6946C47.3997 89.3916 46.9831 88.937 46.68 88.331C46.377 87.7202 46.2255 86.9508 46.2255 86.0227V79.0909H47.9016V85.9091C47.9016 86.7045 48.1242 87.339 48.5692 87.8125C49.0191 88.286 49.592 88.5227 50.288 88.5227C50.7047 88.5227 51.1284 88.4162 51.5593 88.2031C51.9949 87.9901 52.3595 87.6634 52.6531 87.223C52.9513 86.7827 53.1005 86.2216 53.1005 85.5398ZM65.1477 83.4375V90H63.4716V75.4545H65.1477V80.7955H65.2898C65.5455 80.232 65.929 79.7846 66.4403 79.4531C66.9564 79.117 67.643 78.9489 68.5 78.9489C69.2434 78.9489 69.8944 79.098 70.4531 79.3963C71.0118 79.6899 71.4451 80.142 71.7528 80.7528C72.0653 81.3589 72.2216 82.1307 72.2216 83.0682V90H70.5455V83.1818C70.5455 82.3153 70.3205 81.6454 69.8707 81.1719C69.4257 80.6937 68.8078 80.4545 68.017 80.4545C67.4678 80.4545 66.9754 80.5705 66.5398 80.8026C66.1089 81.0346 65.768 81.3731 65.517 81.8182C65.2708 82.2633 65.1477 82.803 65.1477 83.4375ZM78.4982 90.2557C77.8069 90.2557 77.1796 90.1255 76.6161 89.8651C76.0527 89.5999 75.6052 89.2188 75.2738 88.7216C74.9424 88.2197 74.7766 87.6136 74.7766 86.9034C74.7766 86.2784 74.8997 85.7718 75.146 85.3835C75.3922 84.9905 75.7212 84.6828 76.1332 84.4602C76.5451 84.2377 76.9996 84.072 77.4968 83.9631C77.9987 83.8494 78.503 83.7595 79.0096 83.6932C79.6725 83.608 80.2099 83.544 80.6218 83.5014C81.0385 83.4541 81.3415 83.3759 81.5309 83.267C81.725 83.1581 81.8221 82.9687 81.8221 82.6989V82.642C81.8221 81.9413 81.6303 81.3968 81.2468 81.0085C80.868 80.6203 80.2927 80.4261 79.521 80.4261C78.7208 80.4261 78.0934 80.6013 77.6388 80.9517C77.1843 81.3021 76.8647 81.6761 76.68 82.0739L75.0891 81.5057C75.3732 80.8428 75.752 80.3267 76.2255 79.9574C76.7037 79.5833 77.2246 79.3229 77.788 79.1761C78.3562 79.0246 78.9149 78.9489 79.4641 78.9489C79.8145 78.9489 80.217 78.9915 80.6715 79.0767C81.1308 79.1572 81.5735 79.3253 81.9996 79.581C82.4305 79.8366 82.788 80.2225 83.0721 80.7386C83.3562 81.2547 83.4982 81.946 83.4982 82.8125V90H81.8221V88.5227H81.7369C81.6232 88.7595 81.4338 89.0128 81.1687 89.2827C80.9035 89.5526 80.5508 89.7822 80.1104 89.9716C79.6701 90.161 79.1327 90.2557 78.4982 90.2557ZM78.7539 88.75C79.4168 88.75 79.9755 88.6198 80.43 88.3594C80.8893 88.099 81.235 87.7628 81.467 87.3509C81.7037 86.9389 81.8221 86.5057 81.8221 86.0511V84.517C81.7511 84.6023 81.5948 84.6804 81.3533 84.7514C81.1166 84.8177 80.842 84.8769 80.5295 84.929C80.2217 84.9763 79.921 85.0189 79.6275 85.0568C79.3387 85.09 79.1043 85.1184 78.9244 85.142C78.4888 85.1989 78.0816 85.2912 77.7028 85.419C77.3287 85.5421 77.0257 85.7292 76.7937 85.9801C76.5664 86.2263 76.4528 86.5625 76.4528 86.9886C76.4528 87.571 76.6682 88.0114 77.0991 88.3097C77.5347 88.6032 78.0863 88.75 78.7539 88.75ZM94.2848 81.5341L92.7791 81.9602C92.6844 81.7093 92.5447 81.4654 92.3601 81.2287C92.1802 80.9872 91.9339 80.7884 91.6214 80.6321C91.3089 80.4759 90.9089 80.3977 90.4212 80.3977C89.7536 80.3977 89.1972 80.5516 88.7521 80.8594C88.3118 81.1624 88.0916 81.5483 88.0916 82.017C88.0916 82.4337 88.2431 82.7628 88.5462 83.0043C88.8492 83.2457 89.3227 83.447 89.9666 83.608L91.5859 84.0057C92.5613 84.2424 93.2881 84.6046 93.7663 85.0923C94.2446 85.5753 94.4837 86.1979 94.4837 86.9602C94.4837 87.5852 94.3037 88.1439 93.9439 88.6364C93.5888 89.1288 93.0916 89.517 92.4524 89.8011C91.8132 90.0852 91.0698 90.2273 90.2223 90.2273C89.1096 90.2273 88.1887 89.9858 87.4595 89.5028C86.7304 89.0199 86.2687 88.3144 86.0746 87.3864L87.6655 86.9886C87.817 87.5758 88.1035 88.0161 88.5249 88.3097C88.951 88.6032 89.5073 88.75 90.1939 88.75C90.9751 88.75 91.5954 88.5843 92.0547 88.2528C92.5187 87.9167 92.7507 87.5142 92.7507 87.0455C92.7507 86.6667 92.6181 86.3494 92.353 86.0938C92.0878 85.8333 91.6806 85.6392 91.1314 85.5114L89.3132 85.0852C88.3142 84.8485 87.5803 84.4815 87.1115 83.9844C86.6475 83.4825 86.4155 82.8551 86.4155 82.1023C86.4155 81.4867 86.5883 80.9422 86.9339 80.4688C87.2843 79.9953 87.7602 79.6236 88.3615 79.3537C88.9676 79.0838 89.6541 78.9489 90.4212 78.9489C91.5007 78.9489 92.3482 79.1856 92.9638 79.6591C93.584 80.1326 94.0244 80.7576 94.2848 81.5341ZM107.064 90.2273C106.041 90.2273 105.16 89.9858 104.422 89.5028C103.683 89.0199 103.115 88.3546 102.717 87.5071C102.319 86.6596 102.12 85.6913 102.12 84.6023C102.12 83.4943 102.324 82.5166 102.731 81.669C103.143 80.8168 103.716 80.1515 104.45 79.6733C105.189 79.1903 106.05 78.9489 107.035 78.9489C107.802 78.9489 108.493 79.0909 109.109 79.375C109.725 79.6591 110.229 80.0568 110.622 80.5682C111.015 81.0795 111.259 81.6761 111.353 82.358H109.677C109.549 81.8608 109.265 81.4205 108.825 81.0369C108.389 80.6487 107.802 80.4545 107.064 80.4545C106.41 80.4545 105.837 80.625 105.345 80.9659C104.857 81.3021 104.476 81.7779 104.201 82.3935C103.931 83.0043 103.797 83.7216 103.797 84.5455C103.797 85.3883 103.929 86.1222 104.194 86.7472C104.464 87.3722 104.843 87.8575 105.331 88.2031C105.823 88.5488 106.401 88.7216 107.064 88.7216C107.499 88.7216 107.895 88.6458 108.25 88.4943C108.605 88.3428 108.905 88.125 109.152 87.8409C109.398 87.5568 109.573 87.2159 109.677 86.8182H111.353C111.259 87.4621 111.024 88.0421 110.65 88.5582C110.281 89.0696 109.791 89.4768 109.18 89.7798C108.574 90.0781 107.868 90.2273 107.064 90.2273ZM115.48 75.4545V90H113.804V75.4545H115.48ZM121.76 90.2557C121.069 90.2557 120.441 90.1255 119.878 89.8651C119.314 89.5999 118.867 89.2188 118.536 88.7216C118.204 88.2197 118.038 87.6136 118.038 86.9034C118.038 86.2784 118.161 85.7718 118.408 85.3835C118.654 84.9905 118.983 84.6828 119.395 84.4602C119.807 84.2377 120.261 84.072 120.759 83.9631C121.26 83.8494 121.765 83.7595 122.271 83.6932C122.934 83.608 123.472 83.544 123.884 83.5014C124.3 83.4541 124.603 83.3759 124.793 83.267C124.987 83.1581 125.084 82.9687 125.084 82.6989V82.642C125.084 81.9413 124.892 81.3968 124.509 81.0085C124.13 80.6203 123.554 80.4261 122.783 80.4261C121.982 80.4261 121.355 80.6013 120.901 80.9517C120.446 81.3021 120.126 81.6761 119.942 82.0739L118.351 81.5057C118.635 80.8428 119.014 80.3267 119.487 79.9574C119.965 79.5833 120.486 79.3229 121.05 79.1761C121.618 79.0246 122.177 78.9489 122.726 78.9489C123.076 78.9489 123.479 78.9915 123.933 79.0767C124.393 79.1572 124.835 79.3253 125.261 79.581C125.692 79.8366 126.05 80.2225 126.334 80.7386C126.618 81.2547 126.76 81.946 126.76 82.8125V90H125.084V88.5227H124.999C124.885 88.7595 124.696 89.0128 124.43 89.2827C124.165 89.5526 123.813 89.7822 123.372 89.9716C122.932 90.161 122.394 90.2557 121.76 90.2557ZM122.016 88.75C122.679 88.75 123.237 88.6198 123.692 88.3594C124.151 88.099 124.497 87.7628 124.729 87.3509C124.965 86.9389 125.084 86.5057 125.084 86.0511V84.517C125.013 84.6023 124.857 84.6804 124.615 84.7514C124.378 84.8177 124.104 84.8769 123.791 84.929C123.483 84.9763 123.183 85.0189 122.889 85.0568C122.6 85.09 122.366 85.1184 122.186 85.142C121.75 85.1989 121.343 85.2912 120.964 85.419C120.59 85.5421 120.287 85.7292 120.055 85.9801C119.828 86.2263 119.714 86.5625 119.714 86.9886C119.714 87.571 119.93 88.0114 120.361 88.3097C120.796 88.6032 121.348 88.75 122.016 88.75ZM129.819 90V79.0909H131.495V90H129.819ZM130.672 77.2727C130.345 77.2727 130.063 77.1615 129.826 76.9389C129.594 76.7164 129.478 76.4489 129.478 76.1364C129.478 75.8239 129.594 75.5563 129.826 75.3338C130.063 75.1113 130.345 75 130.672 75C130.998 75 131.278 75.1113 131.51 75.3338C131.746 75.5563 131.865 75.8239 131.865 76.1364C131.865 76.4489 131.746 76.7164 131.51 76.9389C131.278 77.1615 130.998 77.2727 130.672 77.2727ZM134.565 90V79.0909H136.185V80.7955H136.327C136.554 80.2131 136.921 79.7609 137.428 79.4389C137.934 79.1122 138.543 78.9489 139.253 78.9489C139.973 78.9489 140.571 79.1122 141.05 79.4389C141.533 79.7609 141.909 80.2131 142.179 80.7955H142.293C142.572 80.232 142.991 79.7846 143.55 79.4531C144.108 79.117 144.778 78.9489 145.56 78.9489C146.535 78.9489 147.333 79.2543 147.953 79.8651C148.573 80.4711 148.884 81.4157 148.884 82.6989V90H147.207V82.6989C147.207 81.8939 146.987 81.3187 146.547 80.973C146.107 80.6274 145.588 80.4545 144.991 80.4545C144.224 80.4545 143.63 80.6866 143.209 81.1506C142.787 81.6098 142.577 82.1922 142.577 82.8977V90H140.872V82.5284C140.872 81.9081 140.671 81.4086 140.268 81.0298C139.866 80.6463 139.348 80.4545 138.713 80.4545C138.277 80.4545 137.87 80.5705 137.491 80.8026C137.117 81.0346 136.814 81.3565 136.582 81.7685C136.355 82.1757 136.241 82.6468 136.241 83.1818V90H134.565ZM156.522 90.2273C155.471 90.2273 154.564 89.9953 153.802 89.5312C153.044 89.0625 152.46 88.4091 152.048 87.571C151.64 86.7282 151.437 85.7481 151.437 84.6307C151.437 83.5133 151.64 82.5284 152.048 81.6761C152.46 80.8191 153.032 80.1515 153.766 79.6733C154.505 79.1903 155.367 78.9489 156.352 78.9489C156.92 78.9489 157.481 79.0436 158.035 79.233C158.589 79.4223 159.093 79.7301 159.548 80.1562C160.002 80.5777 160.364 81.1364 160.634 81.8324C160.904 82.5284 161.039 83.3854 161.039 84.4034V85.1136H152.63V83.6648H159.335C159.335 83.0492 159.211 82.5 158.965 82.017C158.724 81.5341 158.378 81.1529 157.928 80.8736C157.483 80.5942 156.958 80.4545 156.352 80.4545C155.684 80.4545 155.106 80.6203 154.619 80.9517C154.136 81.2784 153.764 81.7045 153.504 82.2301C153.243 82.7557 153.113 83.3191 153.113 83.9205V84.8864C153.113 85.7102 153.255 86.4086 153.539 86.9815C153.828 87.5497 154.228 87.983 154.739 88.2812C155.251 88.5748 155.845 88.7216 156.522 88.7216C156.962 88.7216 157.36 88.66 157.715 88.5369C158.075 88.4091 158.385 88.2197 158.646 87.9688C158.906 87.7131 159.107 87.3958 159.249 87.017L160.869 87.4716C160.698 88.0208 160.412 88.5038 160.009 88.9205C159.607 89.3324 159.11 89.6544 158.518 89.8864C157.926 90.1136 157.261 90.2273 156.522 90.2273ZM167.708 90.2273C166.799 90.2273 165.996 89.9976 165.3 89.5384C164.604 89.0743 164.06 88.4209 163.667 87.5781C163.274 86.7306 163.077 85.7292 163.077 84.5739C163.077 83.428 163.274 82.4337 163.667 81.5909C164.06 80.7481 164.607 80.0971 165.308 79.6378C166.008 79.1785 166.818 78.9489 167.737 78.9489C168.447 78.9489 169.008 79.0672 169.42 79.304C169.836 79.536 170.154 79.8011 170.371 80.0994C170.594 80.393 170.767 80.6345 170.89 80.8239H171.032V75.4545H172.708V90H171.089V88.3239H170.89C170.767 88.5227 170.592 88.7737 170.364 89.0767C170.137 89.375 169.813 89.6425 169.391 89.8793C168.97 90.1113 168.409 90.2273 167.708 90.2273ZM167.935 88.7216C168.608 88.7216 169.176 88.5464 169.64 88.196C170.104 87.8409 170.457 87.3509 170.698 86.7259C170.94 86.0961 171.06 85.3693 171.06 84.5455C171.06 83.7311 170.942 83.0185 170.705 82.4077C170.469 81.7921 170.118 81.3139 169.654 80.973C169.19 80.6274 168.617 80.4545 167.935 80.4545C167.225 80.4545 166.633 80.6368 166.16 81.0014C165.691 81.3613 165.338 81.8513 165.102 82.4716C164.87 83.0871 164.754 83.7784 164.754 84.5455C164.754 85.322 164.872 86.0275 165.109 86.6619C165.35 87.2917 165.705 87.7936 166.174 88.1676C166.647 88.5369 167.235 88.7216 167.935 88.7216ZM186.721 75.4545V90H184.96V77.3011H184.874L181.323 79.6591V77.8693L184.96 75.4545H186.721ZM196.785 90V75.4545H205.506V77.017H198.546V81.9318H204.853V83.4943H198.546V90H196.785ZM209.375 75.4545L213.125 81.5057H213.239L216.989 75.4545H219.063L214.489 82.7273L219.063 90H216.989L213.239 84.0625H213.125L209.375 90H207.301L211.989 82.7273L207.301 75.4545H209.375ZM232.825 80H231.064C230.96 79.4934 230.777 79.0483 230.517 78.6648C230.261 78.2812 229.949 77.9593 229.58 77.6989C229.215 77.4337 228.81 77.2348 228.365 77.1023C227.92 76.9697 227.456 76.9034 226.973 76.9034C226.092 76.9034 225.295 77.1259 224.58 77.571C223.869 78.0161 223.304 78.6719 222.882 79.5384C222.465 80.4048 222.257 81.4678 222.257 82.7273C222.257 83.9867 222.465 85.0497 222.882 85.9162C223.304 86.7827 223.869 87.4384 224.58 87.8835C225.295 88.3286 226.092 88.5511 226.973 88.5511C227.456 88.5511 227.92 88.4848 228.365 88.3523C228.81 88.2197 229.215 88.0232 229.58 87.7628C229.949 87.4976 230.261 87.1733 230.517 86.7898C230.777 86.4015 230.96 85.9564 231.064 85.4545H232.825C232.693 86.1979 232.451 86.8632 232.101 87.4503C231.75 88.0374 231.315 88.5369 230.794 88.9489C230.273 89.3561 229.688 89.6662 229.04 89.8793C228.396 90.0923 227.707 90.1989 226.973 90.1989C225.732 90.1989 224.629 89.8958 223.663 89.2898C222.697 88.6837 221.938 87.822 221.384 86.7045C220.83 85.5871 220.553 84.2614 220.553 82.7273C220.553 81.1932 220.83 79.8674 221.384 78.75C221.938 77.6326 222.697 76.7708 223.663 76.1648C224.629 75.5587 225.732 75.2557 226.973 75.2557C227.707 75.2557 228.396 75.3622 229.04 75.5753C229.688 75.7884 230.273 76.1009 230.794 76.5128C231.315 76.92 231.75 77.4171 232.101 78.0043C232.451 78.5866 232.693 79.2519 232.825 80Z" fill="#EA580C"/>
<path d="M50.6619 33.4347H47.4744C47.3835 32.9119 47.2159 32.4489 46.9716 32.0455C46.7273 31.6364 46.4233 31.2898 46.0597 31.0057C45.696 30.7216 45.2813 30.5085 44.8153 30.3665C44.3551 30.2188 43.858 30.1449 43.3239 30.1449C42.375 30.1449 41.5341 30.3835 40.8011 30.8608C40.0682 31.3324 39.4943 32.0256 39.0795 32.9403C38.6648 33.8494 38.4574 34.9602 38.4574 36.2727C38.4574 37.608 38.6648 38.733 39.0795 39.6477C39.5 40.5568 40.0739 41.2443 40.8011 41.7102C41.5341 42.1705 42.3722 42.4006 43.3153 42.4006C43.8381 42.4006 44.3267 42.3324 44.7812 42.196C45.2415 42.054 45.6534 41.8466 46.017 41.5739C46.3864 41.3011 46.696 40.9659 46.946 40.5682C47.2017 40.1705 47.3778 39.7159 47.4744 39.2045L50.6619 39.2216C50.5426 40.0511 50.2841 40.8295 49.8864 41.5568C49.4943 42.2841 48.9801 42.9261 48.3438 43.483C47.7074 44.0341 46.9631 44.4659 46.1108 44.7784C45.2585 45.0852 44.3125 45.2386 43.2727 45.2386C41.7386 45.2386 40.3693 44.8835 39.1648 44.1733C37.9602 43.4631 37.0114 42.4375 36.3182 41.0966C35.625 39.7557 35.2784 38.1477 35.2784 36.2727C35.2784 34.392 35.6278 32.7841 36.3267 31.4489C37.0256 30.108 37.9773 29.0824 39.1818 28.3722C40.3864 27.6619 41.75 27.3068 43.2727 27.3068C44.2443 27.3068 45.1477 27.4432 45.983 27.7159C46.8182 27.9886 47.5625 28.3892 48.2159 28.9176C48.8693 29.4403 49.4063 30.0824 49.8267 30.8438C50.2528 31.5994 50.5313 32.4631 50.6619 33.4347ZM59.1314 45.2557C57.853 45.2557 56.745 44.9744 55.8075 44.4119C54.87 43.8494 54.1428 43.0625 53.6257 42.0511C53.1143 41.0398 52.8587 39.858 52.8587 38.5057C52.8587 37.1534 53.1143 35.9687 53.6257 34.9517C54.1428 33.9347 54.87 33.1449 55.8075 32.5824C56.745 32.0199 57.853 31.7386 59.1314 31.7386C60.4098 31.7386 61.5178 32.0199 62.4553 32.5824C63.3928 33.1449 64.1172 33.9347 64.6286 34.9517C65.1456 35.9687 65.4041 37.1534 65.4041 38.5057C65.4041 39.858 65.1456 41.0398 64.6286 42.0511C64.1172 43.0625 63.3928 43.8494 62.4553 44.4119C61.5178 44.9744 60.4098 45.2557 59.1314 45.2557ZM59.1484 42.7841C59.8416 42.7841 60.4212 42.5937 60.8871 42.2131C61.353 41.8267 61.6996 41.3097 61.9268 40.6619C62.1598 40.0142 62.2763 39.2926 62.2763 38.4972C62.2763 37.696 62.1598 36.9716 61.9268 36.3239C61.6996 35.6705 61.353 35.1506 60.8871 34.7642C60.4212 34.3778 59.8416 34.1847 59.1484 34.1847C58.4382 34.1847 57.8473 34.3778 57.3757 34.7642C56.9098 35.1506 56.5604 35.6705 56.3274 36.3239C56.1001 36.9716 55.9865 37.696 55.9865 38.4972C55.9865 39.2926 56.1001 40.0142 56.3274 40.6619C56.5604 41.3097 56.9098 41.8267 57.3757 42.2131C57.8473 42.5937 58.4382 42.7841 59.1484 42.7841ZM71.108 37.3295V45H68.0227V31.9091H70.9716V34.1335H71.125C71.4261 33.4006 71.9063 32.8182 72.5653 32.3864C73.2301 31.9545 74.0511 31.7386 75.0284 31.7386C75.9318 31.7386 76.7188 31.9318 77.3892 32.3182C78.0653 32.7045 78.5881 33.2642 78.9574 33.9972C79.3324 34.7301 79.517 35.6193 79.5114 36.6648V45H76.4261V37.142C76.4261 36.267 76.1989 35.5824 75.7443 35.0881C75.2955 34.5937 74.6733 34.3466 73.8778 34.3466C73.3381 34.3466 72.858 34.4659 72.4375 34.7045C72.0227 34.9375 71.696 35.2756 71.4574 35.7188C71.2244 36.1619 71.108 36.6989 71.108 37.3295ZM88.3409 50.1818C87.233 50.1818 86.2813 50.0313 85.4858 49.7301C84.6903 49.4347 84.0511 49.0369 83.5682 48.5369C83.0852 48.0369 82.75 47.483 82.5625 46.875L85.3409 46.2017C85.4659 46.4574 85.6477 46.7102 85.8864 46.9602C86.125 47.2159 86.446 47.4261 86.8494 47.5909C87.2585 47.7614 87.7727 47.8466 88.392 47.8466C89.267 47.8466 89.9915 47.6335 90.5653 47.2074C91.1392 46.7869 91.4261 46.0938 91.4261 45.1278V42.6477H91.2727C91.1136 42.9659 90.8807 43.2926 90.5739 43.6278C90.2727 43.9631 89.8722 44.2443 89.3722 44.4716C88.8778 44.6989 88.2557 44.8125 87.5057 44.8125C86.5 44.8125 85.5881 44.5767 84.7699 44.1051C83.9574 43.6278 83.3097 42.9176 82.8267 41.9744C82.3494 41.0256 82.1108 39.8381 82.1108 38.4119C82.1108 36.9744 82.3494 35.7614 82.8267 34.7727C83.3097 33.7784 83.9602 33.0256 84.7784 32.5142C85.5966 31.9972 86.5085 31.7386 87.5142 31.7386C88.2813 31.7386 88.9119 31.8693 89.4062 32.1307C89.9062 32.3864 90.304 32.696 90.5994 33.0597C90.8949 33.4176 91.1193 33.7557 91.2727 34.0739H91.4432V31.9091H94.4858V45.2131C94.4858 46.3324 94.2188 47.2585 93.6847 47.9915C93.1506 48.7244 92.4205 49.2727 91.4943 49.6364C90.5682 50 89.517 50.1818 88.3409 50.1818ZM88.3665 42.392C89.0199 42.392 89.5767 42.233 90.0369 41.9148C90.4972 41.5966 90.8466 41.1392 91.0852 40.5426C91.3239 39.946 91.4432 39.2301 91.4432 38.3949C91.4432 37.571 91.3239 36.8494 91.0852 36.2301C90.8523 35.6108 90.5057 35.1307 90.0455 34.7898C89.5909 34.4432 89.0313 34.2699 88.3665 34.2699C87.679 34.2699 87.1051 34.4489 86.6449 34.8068C86.1847 35.1648 85.8381 35.6562 85.6051 36.2812C85.3722 36.9006 85.2557 37.6051 85.2557 38.3949C85.2557 39.196 85.3722 39.8977 85.6051 40.5C85.8438 41.0966 86.1932 41.5625 86.6534 41.8977C87.1193 42.2273 87.6903 42.392 88.3665 42.392ZM97.6477 45V31.9091H100.639V34.0909H100.776C101.014 33.3352 101.423 32.7528 102.003 32.3438C102.588 31.929 103.256 31.7216 104.006 31.7216C104.176 31.7216 104.366 31.7301 104.577 31.7472C104.793 31.7585 104.972 31.7784 105.114 31.8068V34.6449C104.983 34.5994 104.776 34.5597 104.491 34.5256C104.213 34.4858 103.943 34.4659 103.682 34.4659C103.119 34.4659 102.614 34.5881 102.165 34.8324C101.722 35.071 101.372 35.4034 101.116 35.8295C100.861 36.2557 100.733 36.7472 100.733 37.304V45H97.6477ZM110.696 45.2642C109.866 45.2642 109.119 45.1165 108.455 44.821C107.795 44.5199 107.273 44.0767 106.886 43.4915C106.506 42.9062 106.315 42.1847 106.315 41.3267C106.315 40.5881 106.452 39.9773 106.724 39.4943C106.997 39.0114 107.369 38.625 107.841 38.3352C108.313 38.0455 108.844 37.8267 109.435 37.679C110.031 37.5256 110.648 37.4148 111.284 37.3466C112.051 37.267 112.673 37.196 113.151 37.1335C113.628 37.0653 113.974 36.9631 114.19 36.8267C114.412 36.6847 114.523 36.4659 114.523 36.1705V36.1193C114.523 35.4773 114.332 34.9801 113.952 34.6278C113.571 34.2756 113.023 34.0994 112.307 34.0994C111.551 34.0994 110.952 34.2642 110.509 34.5938C110.071 34.9233 109.776 35.3125 109.622 35.7614L106.741 35.3523C106.969 34.5568 107.344 33.892 107.866 33.358C108.389 32.8182 109.028 32.4148 109.784 32.1477C110.54 31.875 111.375 31.7386 112.29 31.7386C112.92 31.7386 113.548 31.8125 114.173 31.9602C114.798 32.108 115.369 32.3523 115.886 32.6932C116.403 33.0284 116.818 33.4858 117.131 34.0653C117.449 34.6449 117.608 35.3693 117.608 36.2386V45H114.642V43.2017H114.54C114.352 43.5653 114.088 43.9062 113.747 44.2244C113.412 44.5369 112.989 44.7898 112.477 44.983C111.972 45.1705 111.378 45.2642 110.696 45.2642ZM111.497 42.9972C112.116 42.9972 112.653 42.875 113.108 42.6307C113.563 42.3807 113.912 42.0511 114.156 41.642C114.406 41.233 114.531 40.7869 114.531 40.304V38.7614C114.435 38.8409 114.27 38.9148 114.037 38.983C113.81 39.0511 113.554 39.1108 113.27 39.1619C112.986 39.2131 112.705 39.2585 112.426 39.2983C112.148 39.3381 111.906 39.3722 111.702 39.4006C111.241 39.4631 110.83 39.5653 110.466 39.7074C110.102 39.8494 109.815 40.0483 109.605 40.304C109.395 40.554 109.29 40.8778 109.29 41.2756C109.29 41.8438 109.497 42.2727 109.912 42.5625C110.327 42.8523 110.855 42.9972 111.497 42.9972ZM127.247 31.9091V34.2955H119.722V31.9091H127.247ZM121.58 28.7727H124.665V41.0625C124.665 41.4773 124.727 41.7955 124.852 42.017C124.983 42.233 125.153 42.3807 125.364 42.4602C125.574 42.5398 125.807 42.5795 126.062 42.5795C126.256 42.5795 126.432 42.5653 126.591 42.5369C126.756 42.5085 126.881 42.483 126.966 42.4602L127.486 44.8722C127.321 44.929 127.085 44.9915 126.778 45.0597C126.477 45.1278 126.108 45.1676 125.67 45.179C124.898 45.2017 124.202 45.0852 123.582 44.8295C122.963 44.5682 122.472 44.1648 122.108 43.6193C121.75 43.0739 121.574 42.392 121.58 41.5739V28.7727ZM138.171 39.4943V31.9091H141.256V45H138.265V42.6733H138.129C137.833 43.4062 137.347 44.0057 136.671 44.4716C136.001 44.9375 135.174 45.1705 134.191 45.1705C133.333 45.1705 132.575 44.9801 131.915 44.5994C131.262 44.2131 130.751 43.6534 130.381 42.9205C130.012 42.1818 129.827 41.2898 129.827 40.2443V31.9091H132.913V39.767C132.913 40.5966 133.14 41.2557 133.594 41.7443C134.049 42.233 134.646 42.4773 135.384 42.4773C135.839 42.4773 136.279 42.3665 136.705 42.1449C137.131 41.9233 137.481 41.5938 137.754 41.1562C138.032 40.7131 138.171 40.1591 138.171 39.4943ZM147.514 27.5455V45H144.429V27.5455H147.514ZM154.454 45.2642C153.624 45.2642 152.877 45.1165 152.212 44.821C151.553 44.5199 151.031 44.0767 150.644 43.4915C150.263 42.9062 150.073 42.1847 150.073 41.3267C150.073 40.5881 150.21 39.9773 150.482 39.4943C150.755 39.0114 151.127 38.625 151.599 38.3352C152.07 38.0455 152.602 37.8267 153.192 37.679C153.789 37.5256 154.406 37.4148 155.042 37.3466C155.809 37.267 156.431 37.196 156.908 37.1335C157.386 37.0653 157.732 36.9631 157.948 36.8267C158.17 36.6847 158.281 36.4659 158.281 36.1705V36.1193C158.281 35.4773 158.09 34.9801 157.71 34.6278C157.329 34.2756 156.781 34.0994 156.065 34.0994C155.309 34.0994 154.71 34.2642 154.266 34.5938C153.829 34.9233 153.533 35.3125 153.38 35.7614L150.499 35.3523C150.727 34.5568 151.102 33.892 151.624 33.358C152.147 32.8182 152.786 32.4148 153.542 32.1477C154.298 31.875 155.133 31.7386 156.048 31.7386C156.678 31.7386 157.306 31.8125 157.931 31.9602C158.556 32.108 159.127 32.3523 159.644 32.6932C160.161 33.0284 160.576 33.4858 160.888 34.0653C161.207 34.6449 161.366 35.3693 161.366 36.2386V45H158.4V43.2017H158.298C158.11 43.5653 157.846 43.9062 157.505 44.2244C157.17 44.5369 156.746 44.7898 156.235 44.983C155.729 45.1705 155.136 45.2642 154.454 45.2642ZM155.255 42.9972C155.874 42.9972 156.411 42.875 156.866 42.6307C157.32 42.3807 157.67 42.0511 157.914 41.642C158.164 41.233 158.289 40.7869 158.289 40.304V38.7614C158.192 38.8409 158.028 38.9148 157.795 38.983C157.567 39.0511 157.312 39.1108 157.028 39.1619C156.744 39.2131 156.462 39.2585 156.184 39.2983C155.906 39.3381 155.664 39.3722 155.46 39.4006C154.999 39.4631 154.587 39.5653 154.224 39.7074C153.86 39.8494 153.573 40.0483 153.363 40.304C153.153 40.554 153.048 40.8778 153.048 41.2756C153.048 41.8438 153.255 42.2727 153.67 42.5625C154.085 42.8523 154.613 42.9972 155.255 42.9972ZM171.005 31.9091V34.2955H163.479V31.9091H171.005ZM165.337 28.7727H168.423V41.0625C168.423 41.4773 168.485 41.7955 168.61 42.017C168.741 42.233 168.911 42.3807 169.121 42.4602C169.332 42.5398 169.565 42.5795 169.82 42.5795C170.013 42.5795 170.19 42.5653 170.349 42.5369C170.513 42.5085 170.638 42.483 170.724 42.4602L171.244 44.8722C171.079 44.929 170.843 44.9915 170.536 45.0597C170.235 45.1278 169.866 45.1676 169.428 45.179C168.656 45.2017 167.96 45.0852 167.34 44.8295C166.721 44.5682 166.229 44.1648 165.866 43.6193C165.508 43.0739 165.332 42.392 165.337 41.5739V28.7727ZM173.585 45V31.9091H176.67V45H173.585ZM175.136 30.0511C174.648 30.0511 174.227 29.8892 173.875 29.5653C173.523 29.2358 173.347 28.8409 173.347 28.3807C173.347 27.9148 173.523 27.5199 173.875 27.196C174.227 26.8665 174.648 26.7017 175.136 26.7017C175.631 26.7017 176.051 26.8665 176.398 27.196C176.75 27.5199 176.926 27.9148 176.926 28.3807C176.926 28.8409 176.75 29.2358 176.398 29.5653C176.051 29.8892 175.631 30.0511 175.136 30.0511ZM185.553 45.2557C184.275 45.2557 183.167 44.9744 182.229 44.4119C181.292 43.8494 180.565 43.0625 180.048 42.0511C179.536 41.0398 179.281 39.858 179.281 38.5057C179.281 37.1534 179.536 35.9687 180.048 34.9517C180.565 33.9347 181.292 33.1449 182.229 32.5824C183.167 32.0199 184.275 31.7386 185.553 31.7386C186.832 31.7386 187.94 32.0199 188.877 32.5824C189.815 33.1449 190.539 33.9347 191.05 34.9517C191.567 35.9687 191.826 37.1534 191.826 38.5057C191.826 39.858 191.567 41.0398 191.05 42.0511C190.539 43.0625 189.815 43.8494 188.877 44.4119C187.94 44.9744 186.832 45.2557 185.553 45.2557ZM185.57 42.7841C186.263 42.7841 186.843 42.5937 187.309 42.2131C187.775 41.8267 188.121 41.3097 188.349 40.6619C188.582 40.0142 188.698 39.2926 188.698 38.4972C188.698 37.696 188.582 36.9716 188.349 36.3239C188.121 35.6705 187.775 35.1506 187.309 34.7642C186.843 34.3778 186.263 34.1847 185.57 34.1847C184.86 34.1847 184.269 34.3778 183.798 34.7642C183.332 35.1506 182.982 35.6705 182.749 36.3239C182.522 36.9716 182.408 37.696 182.408 38.4972C182.408 39.2926 182.522 40.0142 182.749 40.6619C182.982 41.3097 183.332 41.8267 183.798 42.2131C184.269 42.5937 184.86 42.7841 185.57 42.7841ZM197.53 37.3295V45H194.445V31.9091H197.393V34.1335H197.547C197.848 33.4006 198.328 32.8182 198.987 32.3864C199.652 31.9545 200.473 31.7386 201.45 31.7386C202.354 31.7386 203.141 31.9318 203.811 32.3182C204.487 32.7045 205.01 33.2642 205.379 33.9972C205.754 34.7301 205.939 35.6193 205.933 36.6648V45H202.848V37.142C202.848 36.267 202.621 35.5824 202.166 35.0881C201.717 34.5937 201.095 34.3466 200.3 34.3466C199.76 34.3466 199.28 34.4659 198.859 34.7045C198.445 34.9375 198.118 35.2756 197.879 35.7188C197.646 36.1619 197.53 36.6989 197.53 37.3295ZM219.416 35.3693L216.604 35.6761C216.524 35.392 216.385 35.125 216.186 34.875C215.993 34.625 215.732 34.4233 215.402 34.2699C215.072 34.1165 214.669 34.0398 214.192 34.0398C213.55 34.0398 213.01 34.179 212.572 34.4574C212.141 34.7358 211.928 35.0966 211.933 35.5398C211.928 35.9205 212.067 36.2301 212.351 36.4688C212.641 36.7074 213.118 36.9034 213.783 37.0568L216.016 37.5341C217.254 37.8011 218.175 38.2244 218.777 38.804C219.385 39.3835 219.692 40.142 219.697 41.0795C219.692 41.9034 219.45 42.6307 218.973 43.2614C218.501 43.8864 217.845 44.375 217.004 44.7273C216.163 45.0795 215.197 45.2557 214.107 45.2557C212.504 45.2557 211.214 44.9205 210.237 44.25C209.26 43.5739 208.678 42.6335 208.49 41.429L211.499 41.1392C211.635 41.7301 211.925 42.1761 212.368 42.4773C212.811 42.7784 213.388 42.929 214.098 42.929C214.831 42.929 215.419 42.7784 215.862 42.4773C216.311 42.1761 216.536 41.804 216.536 41.3608C216.536 40.9858 216.391 40.6761 216.101 40.4318C215.817 40.1875 215.374 40 214.771 39.8693L212.538 39.4006C211.283 39.1392 210.354 38.6989 209.751 38.0795C209.149 37.4545 208.851 36.6648 208.857 35.7102C208.851 34.9034 209.07 34.2045 209.513 33.6136C209.962 33.017 210.584 32.5568 211.379 32.233C212.18 31.9034 213.104 31.7386 214.149 31.7386C215.683 31.7386 216.891 32.0653 217.771 32.7188C218.658 33.3722 219.206 34.2557 219.416 35.3693Z" fill="#EA580C"/>
</svg>
