<svg width="440" height="380" viewBox="0 0 440 380" fill="none" xmlns="http://www.w3.org/2000/svg">
<path d="M417.43 171.77C403.27 120.54 367.48 94.28 339.82 86.3C331.72 83.96 323.35 83.13 315.37 83.19C317.36 79.94 319.05 76.76 320.35 74.11C324.77 65.03 327.87 49.49 326.99 38.85C326.11 28.21 332.67 16 332.67 16C332.67 16 322.34 20.21 315.93 21.99C309.51 23.76 265.92 25.09 243.12 35.3C225.94 42.99 226.11 53.31 227.23 58.32C214.7 52.18 200.09 47.94 183.66 47.94C163.79 47.94 147.33 56.69 134.28 67.85C131.89 60.12 125.74 45.37 112.32 39.29C93.74 30.86 70.06 26.42 52.8 24.43C35.54 22.44 29.34 18.44 29.34 18.44C29.34 18.44 36.22 50.82 38.64 60.57C41.07 70.33 35.75 98.49 53.9 108.03C67.65 115.26 86.99 121.84 95.55 124.61C95.2 135.32 99.29 148.1 102.21 154.38C106.34 163.25 187.48 199.32 190.43 200.8C190.43 200.8 203.54 200.96 214.81 198.45C212.01 206.52 209.02 213.81 209.02 213.81C209.02 213.81 201.27 212.7 173.61 210.93C145.95 209.16 104.34 195.41 104.34 195.41L111.86 210.93L86.85 206.49L94.6 227.78L83.31 225.34C83.31 225.34 86.85 243.75 85.97 243.75C85.08 243.75 65.61 232.22 65.61 232.22L61.63 253.51L47.02 237.54L43.7 258.39L38.83 248.63C38.83 248.63 37.5 253.07 41.49 260.38C45.47 267.7 71.81 325.8 127.57 347.98C183.34 370.16 267.22 380 348.64 330.9C406.55 296 431.59 223 417.43 171.77Z" fill="#EA580C"/>
<path d="M302.42 143.07C298.88 144.84 291.36 147.39 291.36 147.39C291.36 147.39 297.79 150.37 300.88 150.38C304.75 150.4 310.17 148.61 310.17 148.61C310.17 148.61 297.92 159.87 290.03 164.13C281.62 168.68 265.69 175 255.07 180.1C244.45 185.2 214.35 207.49 214.35 207.49L207.71 194.07C208.15 193.18 204.76 169.66 209.04 151.94C213.24 134.53 220.67 120.86 241.25 111.55C261.83 102.24 274.47 101.8 281.63 102.93C288.78 104.07 295.13 107.14 303.76 111.8C312.39 116.46 327.66 117.01 327.66 117.01C327.66 117.01 315.49 121.78 309.51 125.99C303.54 130.2 291.36 132.86 291.36 132.86C291.36 132.86 294.68 135.96 298.66 135.74C302.64 135.52 314.15 133.19 314.15 133.19C314.15 133.19 305.96 141.3 302.42 143.07ZM171.42 131.98C162.57 124.66 146.41 114.68 129.15 111.81C111.89 108.94 98.94 109.14 82.46 117.79C71.04 123.78 68.96 130.65 62.54 133.54L50.37 135.31C50.37 135.31 62.65 140.3 69.62 141.3C76.21 142.24 79.58 142.41 79.58 142.41L74.49 146.62C71.61 147.95 60.99 150.41 60.99 150.41C60.99 150.41 70.51 152.6 74.93 153.49C79.36 154.38 84.89 152.38 84.89 152.38C84.89 152.38 83.34 158.81 80.02 161.47C76.7 164.13 70.17 166.13 70.17 166.13C70.17 166.13 84 170.12 94.18 171.01C104.36 171.9 114.2 173.29 128.26 175.67C136.09 177 158.22 188.14 168.98 193.19C179.74 198.24 195.76 211.71 195.76 211.71L199.96 193.86C199.96 193.86 196.09 170.91 191.55 157.49C188.68 148.98 180.27 139.3 171.42 131.98ZM108.55 194.77C105.33 192.68 101.22 191.95 97.72 190.51C93.59 188.81 89.64 186.68 85.89 184.26C69.51 173.68 57.75 157.71 46.35 142.22C45.69 141.33 43.76 142.6 43.53 143.38C43.24 144.4 42.99 145.38 42.78 146.35C37.39 138.34 30.71 131.57 22.72 125.99C21.97 125.47 19.54 126.8 20.08 127.77C25.22 136.98 25.9 147.18 25.54 157.53C25.16 168.48 24.42 179.32 24.71 190.29C24.9 197.29 24.89 204.62 25.34 211.92C25.06 212.18 24.86 212.47 24.88 212.73C26.67 232.75 30.79 254.08 44.43 269.6C45.19 270.47 46.76 269.32 47.26 268.66C50.48 264.47 49.22 259.42 49.82 254.62C53.2 259.03 57.36 262.43 62.51 264.93C63.49 265.41 64.93 264.42 65.33 263.54C68.08 257.48 69.58 251.41 69.94 244.88C79.62 248.42 89.52 250.93 99.76 252.37C100.5 252.47 102.49 251.68 102.3 250.67C100.92 243.14 97.78 236.6 92.91 230.98C97.28 231.88 101.61 232.93 105.91 234.16C106.78 234.41 108.73 233.29 108.38 232.25C105.84 224.67 102.32 217.73 97.74 211.26C105.5 212.57 113.29 213.46 121.16 213.89C121.75 213.92 124.26 213.01 123.55 212.04C119.38 206.28 114.64 198.73 108.55 194.77Z" fill="#EFEFEF"/>
<path d="M317.25 30.41C316.81 31.08 314.59 47.71 309.28 59.02C303.97 70.33 303.53 85.41 294.01 90.07C284.49 94.73 269.89 97.29 269.89 97.29L239.13 65.52V60.14C239.13 57.48 245.1 43.51 255.28 40.85C265.46 38.19 307.51 35.53 311.05 33.98C314.59 32.41 317.69 29.75 317.25 30.41ZM113.22 56.36C104.81 49.49 93.52 43.72 79.36 40.17C65.2 36.62 46.39 35.07 46.39 35.07C46.39 35.07 48.16 36.4 50.59 38.17C53.02 39.94 57.45 56.58 57.67 65.51C57.89 74.44 60.99 86.3 69.4 97.16C77.81 108.03 102.38 108.4 102.38 108.4L128.27 76.31C128.26 76.32 121.62 63.24 113.22 56.36ZM206.01 80.38C206.48 79.33 204.16 80.19 203.85 80.72C199.34 88.53 192.7 93.47 184.37 96.75C183.47 97.1 181.39 98.34 180.47 98.28C179.01 98.19 180.29 98.3 181.19 96.69C182.72 93.97 184.09 91.63 185.1 88.64C185.47 87.54 183.74 88.08 183.34 88.29C176.36 92.03 168.87 93.36 161.18 92.47C166.91 89.96 171.66 86.13 175.42 80.83C175.94 80.1 175.19 79.74 174.54 79.93C166.78 82.2 159.12 81.08 151.45 79.41C161.96 75.84 174.24 68.37 177.06 57.68C177.34 56.61 175.24 57.54 175 58.18C170.99 69.04 158.48 76.13 147.89 78.78C147.42 78.9 145.25 80.38 146.62 80.7C152.93 82.17 159.36 83.65 165.88 83.31C167.04 83.25 168.21 82.99 169.36 82.96C172.62 82.89 171.64 81.83 170.83 83.78C169.09 87.97 161.56 90.89 157.65 92.07C157.22 92.2 154.84 93.81 156.32 94.08C165.2 95.74 173.77 94.55 181.82 90.78C180.48 94.22 178.71 97.07 176.13 99.87C175.5 100.56 175.81 101.35 176.81 101.04C188.36 97.47 200.77 92.13 206.01 80.38ZM203.23 189.42C180.72 190.45 177.95 199.4 177.95 199.4C177.95 199.4 201.93 218.69 204.54 218.69C207.15 218.69 228.52 198.07 228.52 198.07C228.52 198.07 222.73 188.52 203.23 189.42ZM163.83 151.7C160.62 154.3 156.16 154.55 151.92 153.9C148.53 153.38 142.28 151.11 141.56 150.88C140.85 150.66 139.41 151.58 139.75 152.24C144.83 162.21 159.62 160.6 165.56 152.52C165.6 152.5 166.28 151.58 166.62 150.81C167.16 149.59 164.02 151.55 163.83 151.7ZM253.64 146.51C252.92 146.74 246.66 149.01 243.28 149.53C239.04 150.18 234.59 149.93 231.37 147.33C231.18 147.17 228.03 145.21 228.58 146.44C228.92 147.22 229.61 148.14 229.64 148.15C235.58 156.23 250.38 157.84 255.45 147.87C255.78 147.21 254.34 146.28 253.64 146.51Z" fill="#1D1D1B"/>
</svg>
